<svg width="24" height="24" viewBox="0 0 24 24" fill="none" xmlns="http://www.w3.org/2000/svg">
<path d="M8 8V0H0V8C0 8.55229 0.447715 9 1 9H7C7.55228 9 8 8.55229 8 8Z" transform="translate(6 7.5) scale(1.5)" fill="currentColor" stroke="currentColor" stroke-width="2" stroke-linecap="round"/>
<path d="M0 0H12" transform="translate(3 7.5) scale(1.5)" stroke="currentColor" stroke-width="2" stroke-linecap="round"/>
<path d="M0 3V1C0 0.447715 0.447715 0 1 0H3C3.55228 0 4 0.447715 4 1V3" transform="translate(9 3) scale(1.5)" stroke="currentColor" stroke-width="2" stroke-linecap="round" stroke-linejoin="round"/>
<path d="M0 0V4" transform="translate(9.75 11.25) scale(1.5)" stroke="white" stroke-linecap="round"/>
<path d="M0 0V4" transform="translate(14.25 11.25) scale(1.5)" stroke="white" stroke-linecap="round"/>
</svg>
