<svg width="24" height="24" viewBox="0 0 24 24" fill="none" xmlns="http://www.w3.org/2000/svg">
<path d="M0 -1C-0.552285 -1 -1 -0.552285 -1 0C-1 0.552285 -0.552285 1 0 1V-1ZM12 1C12.5523 1 13 0.552285 13 0C13 -0.552285 12.5523 -1 12 -1V1ZM0 1H12V-1H0V1Z" transform="translate(3 21) scale(1.5)" fill="currentColor"/>
<path d="M0 -1C-0.552285 -1 -1 -0.552285 -1 0C-1 0.552285 -0.552285 1 0 1V-1ZM12 1C12.5523 1 13 0.552285 13 0C13 -0.552285 12.5523 -1 12 -1V1ZM0 1H12V-1H0V1Z" transform="translate(3 3) scale(1.5)" fill="currentColor"/>
<path d="M0 -1C-0.552285 -1 -1 -0.552285 -1 0C-1 0.552285 -0.552285 1 0 1V-1ZM6 1C6.55228 1 7 0.552285 7 0C7 -0.552285 6.55228 -1 6 -1V1ZM0 1H6V-1H0V1Z" transform="translate(12 15) scale(1.5)" fill="currentColor"/>
<path d="M0 -1C-0.552285 -1 -1 -0.552285 -1 0C-1 0.552285 -0.552285 1 0 1V-1ZM6 1C6.55228 1 7 0.552285 7 0C7 -0.552285 6.55228 -1 6 -1V1ZM0 1H6V-1H0V1Z" transform="translate(12 9) scale(1.5)" fill="currentColor"/>
<mask id="path-5-inside-1" fill="white">
<path d="M0.456826 3.17247L3.42921 0.686471C3.75471 0.414235 4.24999 0.645672 4.24999 1.07001V6.06109C4.24999 6.48631 3.75291 6.71745 3.42777 6.44342L0.455384 3.93834C0.21776 3.73807 0.21845 3.37184 0.456826 3.17247Z"/>
</mask>
<path d="M0.456826 3.17247L3.42921 0.686471C3.75471 0.414235 4.24999 0.645672 4.24999 1.07001V6.06109C4.24999 6.48631 3.75291 6.71745 3.42777 6.44342L0.455384 3.93834C0.21776 3.73807 0.21845 3.37184 0.456826 3.17247Z" transform="translate(1.125 6.66817) scale(1.5)" fill="currentColor"/>
<path d="M3.42921 0.686471L4.71232 2.22062L3.42921 0.686471ZM0.456826 3.17247L-0.826287 1.63832L-0.826287 1.63832L0.456826 3.17247ZM0.455384 3.93834L1.74426 2.40903L0.455384 3.93834ZM3.42777 6.44342L4.71665 4.91411L4.71665 4.91411L3.42777 6.44342ZM2.1461 -0.84768L-0.826287 1.63832L1.73994 4.70662L4.71232 2.22062L2.1461 -0.84768ZM-0.833496 5.46765L2.13889 7.97273L4.71665 4.91411L1.74426 2.40903L-0.833496 5.46765ZM6.24999 6.06109V1.07001H2.24999V6.06109H6.24999ZM2.13889 7.97273C3.76462 9.34287 6.24999 8.18719 6.24999 6.06109H2.24999C2.24999 4.78543 3.74121 4.09202 4.71665 4.91411L2.13889 7.97273ZM-0.826287 1.63832C-2.01817 2.63517 -2.02161 4.46632 -0.833496 5.46765L1.74426 2.40903C2.45714 3.00982 2.45507 4.10851 1.73994 4.70662L-0.826287 1.63832ZM4.71232 2.22062C3.73582 3.03733 2.24999 2.34302 2.24999 1.07001H6.24999C6.24999 -1.05168 3.77359 -2.20886 2.1461 -0.84768L4.71232 2.22062Z" transform="translate(1.125 6.66817) scale(1.5)" fill="currentColor" mask="url(#path-5-inside-1)"/>
<path d="M2.5 0L0 2.5L2.5 5" transform="translate(3 8.25) scale(1.5)" stroke="currentColor"/>
</svg>
