<svg width="24" height="24" viewBox="0 0 24 24" fill="none" xmlns="http://www.w3.org/2000/svg">
<path d="M4.45455 0.850045C4.92399 0.85005 5.30456 0.469496 5.30456 5.3962e-05C5.30457 -0.469388 4.92401 -0.84995 4.45457 -0.849955L4.45455 0.850045ZM4.45457 7.10196C4.92402 7.10195 5.30457 6.72139 5.30456 6.25195C5.30455 5.78251 4.92399 5.40195 4.45455 5.40196L4.45457 7.10196ZM3.12605 0.850032L4.45455 0.850045L4.45457 -0.849955L3.12607 -0.849968L3.12605 0.850032ZM4.45455 5.40196L3.12606 5.40198L3.12608 7.10198L4.45457 7.10196L4.45455 5.40196ZM3.12606 5.40198C1.86905 5.402 0.850032 4.38298 0.850054 3.12597L-0.849946 3.12594C-0.849984 5.32186 0.930165 7.10201 3.12608 7.10198L3.12606 5.40198ZM3.12607 -0.849968C0.930209 -0.849991 -0.849909 0.930079 -0.849946 3.12594L0.850054 3.12597C0.850075 1.86899 1.86907 0.850019 3.12605 0.850032L3.12607 -0.849968Z" transform="translate(15.4343 1.93433) scale(-1.5 1.5) rotate(45)" fill="black"/>
<path d="M4.45463 0.85C4.92408 0.850005 5.30464 0.469451 5.30464 8.64702e-06C5.30465 -0.469433 4.92409 -0.849995 4.45465 -0.85L4.45463 0.85ZM4.45465 7.10192C4.9241 7.10191 5.30465 6.72135 5.30464 6.2519C5.30464 5.78246 4.92407 5.40191 4.45463 5.40192L4.45465 7.10192ZM3.12613 0.849986L4.45463 0.85L4.45465 -0.85L3.12615 -0.850014L3.12613 0.849986ZM4.45463 5.40192L3.12614 5.40193L3.12616 7.10193L4.45465 7.10192L4.45463 5.40192ZM3.12614 5.40193C1.86913 5.40195 0.850113 4.38293 0.850135 3.12592L-0.849865 3.12589C-0.849903 5.32181 0.930246 7.10196 3.12616 7.10193L3.12614 5.40193ZM3.12615 -0.850014C0.93029 -0.850036 -0.849828 0.930033 -0.849865 3.12589L0.850135 3.12592C0.850156 1.86894 1.86915 0.849974 3.12613 0.849986L3.12615 -0.850014Z" transform="translate(8.56567 22.0657) scale(1.5 -1.5) rotate(45)" fill="black"/>
<path d="M3.61872 0.618718C3.96043 0.27701 3.96043 -0.27701 3.61872 -0.618718C3.27701 -0.960427 2.72299 -0.960427 2.38128 -0.618718L3.61872 0.618718ZM-0.618718 2.38128C-0.960427 2.72299 -0.960427 3.27701 -0.618718 3.61872C-0.27701 3.96043 0.27701 3.96043 0.618718 3.61872L-0.618718 2.38128ZM2.38128 -0.618718L-0.618718 2.38128L0.618718 3.61872L3.61872 0.618718L2.38128 -0.618718Z" transform="translate(9.75 9.75) scale(1.5)" fill="black"/>
</svg>
