<svg width="24" height="24" viewBox="0 0 24 24" fill="none" xmlns="http://www.w3.org/2000/svg">
<path d="M0 -1C-0.552285 -1 -1 -0.552285 -1 0C-1 0.552285 -0.552285 1 0 1V-1ZM9 1C9.55229 1 10 0.552285 10 0C10 -0.552285 9.55229 -1 9 -1V1ZM0 1H9V-1H0V1Z" transform="translate(9 19.5) scale(1.5)" fill="black"/>
<path d="M0 -1C-0.552285 -1 -1 -0.552285 -1 0C-1 0.552285 -0.552285 1 0 1V-1ZM9 1C9.55229 1 10 0.552285 10 0C10 -0.552285 9.55229 -1 9 -1V1ZM0 1H9V-1H0V1Z" transform="translate(9 4.5) scale(1.5)" fill="black"/>
<path d="M0 -1C-0.552285 -1 -1 -0.552285 -1 0C-1 0.552285 -0.552285 1 0 1V-1ZM9 1C9.55229 1 10 0.552285 10 0C10 -0.552285 9.55229 -1 9 -1V1ZM0 1H9V-1H0V1Z" transform="translate(9 12) scale(1.5)" fill="black"/>
<path d="M0 -1C-0.552285 -1 -1 -0.552285 -1 0C-1 0.552285 -0.552285 1 0 1V-1ZM1 1C1.55228 1 2 0.552285 2 0C2 -0.552285 1.55228 -1 1 -1V1ZM0 1H1V-1H0V1Z" transform="translate(1.5 19.5) scale(1.5)" fill="black"/>
<path d="M0 -1C-0.552285 -1 -1 -0.552285 -1 0C-1 0.552285 -0.552285 1 0 1V-1ZM1 1C1.55228 1 2 0.552285 2 0C2 -0.552285 1.55228 -1 1 -1V1ZM0 1H1V-1H0V1Z" transform="translate(1.5 4.5) scale(1.5)" fill="black"/>
<path d="M0 -1C-0.552285 -1 -1 -0.552285 -1 0C-1 0.552285 -0.552285 1 0 1V-1ZM1 1C1.55228 1 2 0.552285 2 0C2 -0.552285 1.55228 -1 1 -1V1ZM0 1H1V-1H0V1Z" transform="translate(1.5 12) scale(1.5)" fill="black"/>
</svg>
