<svg width="24" height="24" viewBox="0 0 24 24" fill="none" xmlns="http://www.w3.org/2000/svg">
<path d="M-0.427415 0.295116C-0.570708 0.531171 -0.495508 0.838693 -0.259453 0.981985C-0.0233982 1.12528 0.284123 1.05008 0.427415 0.814023L-0.427415 0.295116ZM2.73854e-10 3.99891H-0.5C-0.5 4.13152 -0.447322 4.2587 -0.353553 4.35246C-0.259785 4.44623 -0.132608 4.49891 2.73854e-10 4.49891V3.99891ZM2.00281 4.49892C2.27896 4.49892 2.50282 4.27506 2.50282 3.99892C2.50282 3.72278 2.27896 3.49892 2.00282 3.49892L2.00281 4.49892ZM2.73854e-10 4.49891C0.195592 4.49891 0.696295 4.49891 1.1481 4.49891C1.374 4.49892 1.58768 4.49892 1.74488 4.49892C1.82349 4.49892 1.88797 4.49892 1.9328 4.49892C1.95522 4.49892 1.97272 4.49892 1.98462 4.49892C1.99057 4.49892 1.99512 4.49892 1.99818 4.49892C1.99971 4.49892 2.00087 4.49892 2.00164 4.49892C2.00203 4.49892 2.00233 4.49892 2.00252 4.49892C2.00262 4.49892 2.00269 4.49892 2.00274 4.49892C2.00277 4.49892 2.00278 4.49892 2.0028 4.49892C2.00281 4.49892 2.00281 4.49892 2.00282 3.99892C2.00282 3.49892 2.00281 3.49892 2.0028 3.49892C2.00279 3.49892 2.00277 3.49892 2.00275 3.49892C2.0027 3.49892 2.00262 3.49892 2.00253 3.49892C2.00233 3.49892 2.00204 3.49892 2.00165 3.49892C2.00087 3.49892 1.99972 3.49892 1.99818 3.49892C1.99512 3.49892 1.99057 3.49892 1.98463 3.49892C1.97273 3.49892 1.95522 3.49892 1.93281 3.49892C1.88797 3.49892 1.82349 3.49892 1.74489 3.49892C1.58769 3.49892 1.37401 3.49892 1.14811 3.49891C0.696301 3.49891 0.195595 3.49891 2.73854e-10 3.49891V4.49891ZM1.50282 1.02235C1.50282 1.47471 1.2337 1.70446 0.702849 2.09962C0.226469 2.45424 -0.5 2.96848 -0.5 3.99891H0.5C0.5 3.53043 0.77494 3.2926 1.29997 2.90177C1.77052 2.55149 2.50282 2.04241 2.50282 1.02235H1.50282ZM2.73863e-10 0.554569C0.427415 0.814023 0.427306 0.814203 0.427197 0.814382C0.427163 0.814438 0.427055 0.814615 0.426986 0.814729C0.426847 0.814956 0.426713 0.815176 0.426584 0.815388C0.426324 0.815812 0.426083 0.816205 0.42586 0.816567C0.425413 0.817292 0.425037 0.817895 0.424733 0.81838C0.424126 0.819351 0.423801 0.819854 0.423758 0.81992C0.423676 0.820047 0.424702 0.818456 0.426826 0.815389C0.431109 0.809204 0.439598 0.797386 0.452185 0.781777C0.477794 0.75002 0.517661 0.705931 0.570532 0.662059C0.675958 0.574576 0.816845 0.499997 0.999991 0.5L1.00001 -0.5C0.519802 -0.500009 0.160689 -0.297303 -0.0680469 -0.107498C-0.182257 -0.0127264 -0.268011 0.0818294 -0.326253 0.154055C-0.355592 0.190439 -0.378586 0.221947 -0.395304 0.24609C-0.403681 0.258187 -0.410535 0.268512 -0.415873 0.276763C-0.418543 0.280891 -0.420839 0.284508 -0.422761 0.287577C-0.423723 0.289111 -0.424591 0.29051 -0.425367 0.291768C-0.425754 0.292397 -0.426119 0.292991 -0.42646 0.293549C-0.426631 0.293828 -0.426796 0.294098 -0.426955 0.294359C-0.427035 0.29449 -0.42715 0.294679 -0.42719 0.294745C-0.427303 0.294931 -0.427415 0.295116 2.73863e-10 0.554569ZM0.999991 0.5C1.19529 0.500003 1.30688 0.568574 1.37513 0.645976C1.45139 0.732471 1.50282 0.865228 1.50282 1.02235H2.50282C2.50282 0.657123 2.38451 0.27871 2.1252 -0.0153797C1.85788 -0.318562 1.46806 -0.499992 1.00001 -0.5L0.999991 0.5Z" transform="translate(0.75 14.25) scale(1.5)" fill="black"/>
<path d="M-0.223056 0.0525117C-0.470197 0.175702 -0.570679 0.475915 -0.447488 0.723056C-0.324298 0.970197 -0.0240845 1.07068 0.223056 0.947488L-0.223056 0.0525117ZM1.00308 0H1.50308C1.50308 -0.173179 1.41347 -0.334027 1.26621 -0.425164C1.11895 -0.5163 0.935018 -0.524746 0.780026 -0.447488L1.00308 0ZM0.503083 4C0.503083 4.27614 0.726941 4.5 1.00308 4.5C1.27923 4.5 1.50308 4.27614 1.50308 4H0.503083ZM2.00617 4.5C2.28231 4.5 2.50617 4.27614 2.50617 4C2.50617 3.72386 2.28231 3.5 2.00617 3.5V4.5ZM0 3.5C-0.276142 3.5 -0.5 3.72386 -0.5 4C-0.5 4.27614 -0.276142 4.5 0 4.5V3.5ZM0.223056 0.947488L1.22614 0.447488L0.780026 -0.447488L-0.223056 0.0525117L0.223056 0.947488ZM0.503083 0V4H1.50308V0H0.503083ZM2.00617 3.5H0V4.5H2.00617V3.5Z" transform="translate(0.75 3.75) scale(1.5)" fill="black"/>
<path d="M0 -1C-0.552285 -1 -1 -0.552285 -1 0C-1 0.552285 -0.552285 1 0 1V-1ZM9 1C9.55229 1 10 0.552285 10 0C10 -0.552285 9.55229 -1 9 -1V1ZM0 1H9V-1H0V1Z" transform="translate(9 19.5) scale(1.5)" fill="black"/>
<path d="M0 -1C-0.552285 -1 -1 -0.552285 -1 0C-1 0.552285 -0.552285 1 0 1V-1ZM9 1C9.55229 1 10 0.552285 10 0C10 -0.552285 9.55229 -1 9 -1V1ZM0 1H9V-1H0V1Z" transform="translate(9 4.5) scale(1.5)" fill="black"/>
<path d="M0 -1C-0.552285 -1 -1 -0.552285 -1 0C-1 0.552285 -0.552285 1 0 1V-1ZM9 1C9.55229 1 10 0.552285 10 0C10 -0.552285 9.55229 -1 9 -1V1ZM0 1H9V-1H0V1Z" transform="translate(9 12) scale(1.5)" fill="black"/>
</svg>
