<svg width="24" height="24" viewBox="0 0 24 24" fill="none" xmlns="http://www.w3.org/2000/svg">
<circle cx="3.5" cy="3.5" r="3.5" transform="translate(12.75 3) scale(1.5)" fill="currentColor"/>
<path d="M5 0C5 -0.552285 4.55228 -1 4 -1C3.44772 -1 3 -0.552285 3 0H5ZM-0.242536 6.52986C-0.778331 6.66381 -1.10409 7.20674 -0.970142 7.74254C-0.836194 8.27833 -0.293259 8.60409 0.242536 8.47014L-0.242536 6.52986ZM3 0C3 3.02668 2.07681 4.64681 1.2718 5.50214C0.859772 5.93992 0.454161 6.20366 0.163066 6.35527C0.017419 6.43113 -0.0989538 6.47858 -0.171887 6.50528C-0.208289 6.5186 -0.233626 6.52667 -0.246081 6.53046C-0.2523 6.53235 -0.255271 6.53317 -0.254766 6.53303C-0.254512 6.53296 -0.253386 6.53265 -0.251358 6.53211C-0.250344 6.53185 -0.249104 6.53152 -0.247635 6.53115C-0.246901 6.53096 -0.246109 6.53076 -0.245259 6.53054C-0.244835 6.53044 -0.244153 6.53026 -0.243941 6.53021C-0.243246 6.53004 -0.242536 6.52986 0 7.5C0.242536 8.47014 0.243276 8.46996 0.244032 8.46977C0.244305 8.4697 0.245078 8.4695 0.245624 8.46937C0.246717 8.46909 0.247873 8.46879 0.249092 8.46848C0.25153 8.46786 0.25422 8.46716 0.257156 8.46639C0.263029 8.46484 0.269893 8.463 0.277715 8.46084C0.293357 8.45652 0.312847 8.45092 0.335925 8.4439C0.382063 8.42987 0.442664 8.41011 0.515637 8.38339C0.661454 8.33001 0.857581 8.24856 1.08693 8.1291C1.54584 7.89009 2.14023 7.49758 2.7282 6.87286C3.92319 5.60319 5 3.47332 5 0H3Z" transform="translate(15.75 8.25) scale(1.5)" fill="currentColor"/>
<circle cx="3.5" cy="3.5" r="3.5" transform="translate(0.75 3) scale(1.5)" fill="currentColor"/>
<path d="M5 0C5 -0.552285 4.55228 -1 4 -1C3.44772 -1 3 -0.552285 3 0H5ZM-0.242536 6.52986C-0.778331 6.66381 -1.10409 7.20674 -0.970142 7.74254C-0.836194 8.27833 -0.293259 8.60409 0.242536 8.47014L-0.242536 6.52986ZM3 0C3 3.02668 2.07681 4.64681 1.2718 5.50214C0.859772 5.93992 0.454161 6.20366 0.163066 6.35527C0.017419 6.43113 -0.0989538 6.47858 -0.171887 6.50528C-0.208289 6.5186 -0.233626 6.52667 -0.246081 6.53046C-0.2523 6.53235 -0.255271 6.53317 -0.254766 6.53303C-0.254512 6.53296 -0.253386 6.53265 -0.251358 6.53211C-0.250344 6.53185 -0.249104 6.53152 -0.247635 6.53115C-0.246901 6.53096 -0.246109 6.53076 -0.245259 6.53054C-0.244835 6.53044 -0.244153 6.53026 -0.243941 6.53021C-0.243246 6.53004 -0.242536 6.52986 0 7.5C0.242536 8.47014 0.243276 8.46996 0.244032 8.46977C0.244305 8.4697 0.245078 8.4695 0.245624 8.46937C0.246717 8.46909 0.247873 8.46879 0.249092 8.46848C0.25153 8.46786 0.25422 8.46716 0.257156 8.46639C0.263029 8.46484 0.269893 8.463 0.277715 8.46084C0.293357 8.45652 0.312847 8.45092 0.335925 8.4439C0.382063 8.42987 0.442664 8.41011 0.515637 8.38339C0.661454 8.33001 0.857581 8.24856 1.08693 8.1291C1.54584 7.89009 2.14023 7.49758 2.7282 6.87286C3.92319 5.60319 5 3.47332 5 0H3Z" transform="translate(3.75 8.25) scale(1.5)" fill="currentColor"/>
</svg>
