<svg width="24" height="24" viewBox="0 0 24 24" fill="none" xmlns="http://www.w3.org/2000/svg">
<path d="M0 -1C-0.552285 -1 -1 -0.552285 -1 0C-1 0.552285 -0.552285 1 0 1V-1ZM2 7C1.44772 7 1 7.44772 1 8C1 8.55229 1.44772 9 2 9V7ZM0 1H4V-1H0V1ZM4 7H2V9H4V7ZM7 4C7 5.65685 5.65685 7 4 7V9C6.76142 9 9 6.76142 9 4H7ZM4 1C5.65685 1 7 2.34315 7 4H9C9 1.23858 6.76142 -1 4 -1V1Z" transform="translate(16.5 7.5) scale(-1.5 1.5)" fill="black"/>
<mask id="path-2-inside-1" fill="white">
<path d="M0.459732 3.17185L3.44931 0.682685C3.77501 0.411501 4.26924 0.643112 4.26924 1.06693V6.06437C4.26924 6.48907 3.77322 6.72038 3.44787 6.44741L0.458289 3.93914C0.219534 3.73882 0.220225 3.37127 0.459732 3.17185Z"/>
</mask>
<path d="M0.459732 3.17185L3.44931 0.682685C3.77501 0.411501 4.26924 0.643112 4.26924 1.06693V6.06437C4.26924 6.48907 3.77322 6.72038 3.44787 6.44741L0.458289 3.93914C0.219534 3.73882 0.220225 3.37127 0.459732 3.17185Z" transform="translate(21.405 2.15543) scale(-1.5 1.5)" fill="black"/>
<path d="M3.44931 0.682685L4.72903 2.21967V2.21967L3.44931 0.682685ZM0.459732 3.17185L1.73945 4.70884L1.73945 4.70884L0.459732 3.17185ZM0.458289 3.93914L-0.827201 5.4713L0.458289 3.93914ZM3.44787 6.44741L2.16238 7.97957H2.16238L3.44787 6.44741ZM2.16959 -0.8543L-0.819985 1.63487L1.73945 4.70884L4.72903 2.21967L2.16959 -0.8543ZM-0.827201 5.4713L2.16238 7.97957L4.73336 4.91525L1.74378 2.40698L-0.827201 5.4713ZM6.26924 6.06437V1.06693H2.26924V6.06437H6.26924ZM2.16238 7.97957C3.78915 9.34444 6.26924 8.18787 6.26924 6.06437H2.26924C2.26924 4.79027 3.75729 4.09633 4.73336 4.91525L2.16238 7.97957ZM-0.819985 1.63487C-2.01752 2.63195 -2.02097 4.46972 -0.827201 5.4713L1.74378 2.40698C2.46004 3.00793 2.45797 4.11059 1.73945 4.70884L-0.819985 1.63487ZM4.72903 2.21967C3.75192 3.03323 2.26924 2.33839 2.26924 1.06693H6.26924C6.26924 -1.05217 3.79811 -2.21022 2.16959 -0.8543L4.72903 2.21967Z" transform="translate(21.405 2.15543) scale(-1.5 1.5)" fill="black" mask="url(#path-2-inside-1)"/>
</svg>
