<svg width="24" height="24" viewBox="0 0 24 24" fill="none" xmlns="http://www.w3.org/2000/svg">
<path d="M0.707107 3.29289C0.316583 2.90237 -0.316583 2.90237 -0.707107 3.29289C-1.09763 3.68342 -1.09763 4.31658 -0.707107 4.70711L0.707107 3.29289ZM3.74775 0.380957L4.21532 -0.502999L4.20854 -0.506587L4.2017 -0.510071L3.74775 0.380957ZM5 3C5 3.2 4.73333 4 3 4V6C5.26667 6 7 4.8 7 3H5ZM3 4C2.17276 4 1.57493 3.79443 1.19721 3.60557C1.00672 3.51033 0.870038 3.41815 0.7875 3.35625C0.7463 3.32535 0.718904 3.30223 0.70538 3.29039C0.69863 3.28449 0.695388 3.28144 0.69566 3.28169C0.695798 3.28182 0.696819 3.28278 0.698725 3.28463C0.699678 3.28555 0.700853 3.2867 0.70225 3.28807C0.702948 3.28876 0.703702 3.2895 0.704512 3.29031C0.704916 3.29071 0.705335 3.29113 0.705767 3.29156C0.705984 3.29177 0.706319 3.29211 0.706427 3.29221C0.706765 3.29255 0.707107 3.29289 0 4C-0.707107 4.70711 -0.706757 4.70746 -0.706404 4.70781C-0.706281 4.70793 -0.705922 4.70829 -0.705676 4.70853C-0.705182 4.70903 -0.704672 4.70953 -0.704145 4.71006C-0.703092 4.7111 -0.701972 4.71221 -0.700785 4.71338C-0.698412 4.71571 -0.695772 4.71829 -0.692866 4.72111C-0.687053 4.72674 -0.680173 4.73331 -0.672222 4.74077C-0.656325 4.75567 -0.63613 4.77411 -0.61163 4.79555C-0.562654 4.8384 -0.4963 4.8934 -0.4125 4.95625C-0.245038 5.08185 -0.00672096 5.23967 0.302786 5.39443C0.925074 5.70557 1.82724 6 3 6V4ZM3.28018 1.26491C3.87128 1.57758 4.31831 1.86149 4.61573 2.16403C4.88706 2.44004 5 2.69452 5 3H7C7 2.05709 6.59345 1.32293 6.04197 0.76195C5.51658 0.227508 4.83749 -0.173906 4.21532 -0.502999L3.28018 1.26491ZM4.2017 -0.510071L3.45395 -0.891027L2.54605 0.891027L3.2938 1.27198L4.2017 -0.510071Z" transform="translate(7.5 12) scale(1.5)" fill="black"/>
<path fill-rule="evenodd" clip-rule="evenodd" d="M3.99965 0.000183105C3.99965 0.000183105 6.55975 0.00324597 6.71961 0.000183105C7.07579 -0.00664132 7.42419 0.177551 7.61113 0.509762C7.85782 0.948129 7.99965 1.44572 7.99965 2.00018C7.99965 3.80018 6.26632 5.00018 3.99965 5.00018C2.82688 5.00018 1.92472 4.70575 1.30244 4.3946C0.992928 4.23985 0.75461 4.08202 0.587149 3.95643C0.503349 3.89358 0.436995 3.83858 0.388019 3.79572C0.363518 3.77428 0.343324 3.75585 0.327426 3.74094L0.298864 3.71355L0.295503 3.71023L0.293973 3.70871L0.293245 3.70799C-0.0972794 3.31746 -0.0979823 2.68359 0.292542 2.29307C0.679715 1.9059 1.30538 1.90257 1.69665 2.2831C1.69817 2.28449 1.70096 2.28701 1.70503 2.29057C1.71855 2.3024 1.74595 2.32553 1.78715 2.35643C1.86969 2.41833 2.00637 2.5105 2.19686 2.60575C2.57457 2.79461 3.17241 3.00018 3.99965 3.00018C5.73298 3.00018 5.99965 2.20018 5.99965 2.00018C5.99965 1.8013 5.95231 1.64014 5.86815 1.49059C5.59731 1.00928 3.99965 0.000183105 3.99965 0.000183105Z" transform="translate(17.9995 10.5003) scale(1.5) rotate(-180)" fill="black"/>
<path d="M0 0H11" transform="translate(3.75 12.75) scale(1.5)" stroke="black" stroke-linecap="round"/>
<path d="M0 0H11" transform="translate(3.75 11.25) scale(1.5)" stroke="white" stroke-linecap="round"/>
</svg>
