<svg width="24" height="24" viewBox="0 0 24 24" fill="none" xmlns="http://www.w3.org/2000/svg">
<path d="M1 0C1 -0.552285 0.552285 -1 0 -1C-0.552285 -1 -1 -0.552285 -1 0H1ZM7 0C7 -0.552285 6.55228 -1 6 -1C5.44772 -1 5 -0.552285 5 0H7ZM5 0V5H7V0H5ZM1 5V0H-1V5H1ZM3 7C1.89543 7 1 6.10457 1 5H-1C-1 7.20914 0.790861 9 3 9V7ZM5 5C5 6.10457 4.10457 7 3 7V9C5.20914 9 7 7.20914 7 5H5Z" transform="translate(7.5 4.5) scale(1.5)" fill="currentColor"/>
<path d="M0 0H7" transform="translate(6.75 20.25) scale(1.5)" stroke="currentColor" stroke-linecap="round"/>
</svg>
