<svg width="24" height="24" viewBox="0 0 24 24" fill="none" xmlns="http://www.w3.org/2000/svg">
<path d="M1 8V2C1 1.44772 1.44772 1 2 1H10C10.5523 1 11 1.44772 11 2V8C11 8.55228 10.5523 9 10 9H2C1.44772 9 1 8.55228 1 8Z" transform="translate(0 4.5) scale(1.5)" fill="currentColor" stroke="currentColor" stroke-width="2"/>
<mask id="path-2-inside-1" fill="white">
<path d="M0.380172 4.63794L4.40517 0.8046C4.7235 0.501429 5.25 0.727071 5.25 1.16667V8.83333C5.25 9.27293 4.7235 9.49857 4.40517 9.1954L0.380173 5.36208C0.173276 5.16504 0.173276 4.83499 0.380172 4.63794Z"/>
</mask>
<path d="M0.380172 4.63794L4.40517 0.8046C4.7235 0.501429 5.25 0.727071 5.25 1.16667V8.83333C5.25 9.27293 4.7235 9.49857 4.40517 9.1954L0.380173 5.36208C0.173276 5.16504 0.173276 4.83499 0.380172 4.63794Z" transform="translate(16.125 4.5) scale(1.5)" fill="currentColor"/>
<path d="M4.40517 0.8046L3.02586 -0.643675L3.02586 -0.643674L4.40517 0.8046ZM0.380172 4.63794L1.75948 6.08622L1.75948 6.08622L0.380172 4.63794ZM0.380173 5.36208L-0.999137 6.81036L-0.999136 6.81036L0.380173 5.36208ZM4.40517 9.1954L5.78448 7.74713V7.74713L4.40517 9.1954ZM3.02586 -0.643674L-0.99914 3.18967L1.75948 6.08622L5.78448 2.25287L3.02586 -0.643674ZM-0.999136 6.81036L3.02586 10.6437L5.78448 7.74713L1.75948 3.9138L-0.999136 6.81036ZM7.25 8.83333V1.16667H3.25V8.83333H7.25ZM3.02586 10.6437C4.61751 12.1595 7.25 11.0313 7.25 8.83333H3.25C3.25 7.51454 4.82949 6.83762 5.78448 7.74713L3.02586 10.6437ZM-0.999139 3.18967C-2.03362 4.17489 -2.03362 5.82514 -0.999137 6.81036L1.75948 3.9138C2.38017 4.50493 2.38017 5.49508 1.75948 6.08622L-0.999139 3.18967ZM5.78448 2.25287C4.8295 3.16239 3.25 2.48546 3.25 1.16667H7.25C7.25 -1.03132 4.61751 -2.15953 3.02586 -0.643675L5.78448 2.25287Z" transform="translate(16.125 4.5) scale(1.5)" fill="currentColor" mask="url(#path-2-inside-1)"/>
</svg>
